<svg width="279" height="210" viewBox="0 0 279 210" fill="none" xmlns="http://www.w3.org/2000/svg">
<path d="M3.416 194.616V158.272H25.368V163.088H30.352V170.704H23.184V165.944H10.528V172.664H20.44V180.224H10.528V194.616H3.416ZM43.7924 194.616V189.856H38.8644V163.088H43.7924V158.272H60.8164V163.088H65.8004V170.704H58.6324V165.944H45.9764V172.664H55.8884V180.224H45.9764V187H58.6324V182.184H65.8004V189.856H60.8164V194.616H43.7924ZM80.3346 194.616V189.856H75.4066V163.088H80.3346V158.272H97.3586V163.088H102.343V170.704H95.1746V165.944H82.5186V172.664H92.4306V180.224H82.5186V187H95.1746V182.184H102.343V189.856H97.3586V194.616H80.3346ZM111.949 194.616V158.272H128.973V163.088H133.901V167.848H138.885V185.04H133.901V189.856H128.973V194.616H111.949ZM119.061 187H126.789V182.184H131.717V170.704H126.789V165.944H119.061V187ZM153.419 194.616V189.856H148.491V163.088H153.419V158.272H170.443V163.088H175.427V189.856H170.443V194.616H153.419ZM155.603 187H168.259V165.944H155.603V187ZM185.033 194.616V187H189.961V165.944H185.033V158.272H202.057V165.944H197.073V187H202.057V194.616H185.033ZM216.605 194.616V189.856H211.677V182.184H218.789V187H231.445V180.224H216.605V175.464H211.677V163.088H216.605V158.272H233.629V163.088H238.613V170.704H231.445V165.944H218.789V172.664H233.629V177.368H238.613V189.856H233.629V194.616H216.605ZM253.147 194.616V189.856H248.219V163.088H253.147V158.272H270.171V163.088H275.155V170.704H267.987V165.944H255.331V172.664H265.243V180.224H255.331V187H267.987V182.184H275.155V189.856H270.171V194.616H253.147Z" fill="black"/>
<path d="M211.112 51.4622L207.312 39.7707C207.064 39.0069 206.353 38.4901 205.549 38.4901H165.997L153.909 1.28067C153.661 0.516834 152.95 0 152.146 0H139.852H127.561C126.758 0 126.046 0.516834 125.798 1.28067L113.575 38.8956H74.4508C73.6472 38.8956 72.9358 39.4124 72.6878 40.1762L68.8902 51.8676L65.0908 63.5591C64.8428 64.3229 65.1143 65.1593 65.7641 65.6316L97.7615 88.879L85.6717 126.088C85.4237 126.852 85.6952 127.688 86.345 128.161L96.2897 135.386C96.2915 135.387 96.2939 135.387 96.2957 135.389L106.235 142.611C106.56 142.847 106.942 142.965 107.324 142.965C107.706 142.965 108.088 142.847 108.414 142.611L140.411 119.364L172.062 142.361C172.388 142.597 172.77 142.715 173.152 142.715C173.534 142.715 173.916 142.597 174.242 142.361L184.188 135.134L194.133 127.909C194.783 127.437 195.054 126.6 194.806 125.837L182.584 88.2225L214.236 65.2243C214.886 64.7519 215.157 63.9156 214.909 63.1518L211.112 51.4622ZM204.203 42.1972L207.169 51.3272L197.207 58.5651L177.58 72.8233L176.949 70.8816L174.986 64.8398L190.547 53.5347C191.197 53.0622 191.469 52.2261 191.221 51.4622C190.973 50.6982 190.261 50.1816 189.458 50.1816L138.821 50.1797L141.414 42.1972H152.358H164.65H204.203ZM130.573 63.5591C130.572 63.5619 130.573 63.5649 130.572 63.5679L126.587 75.8343L119.448 70.6483L133.706 26.7679L138.118 40.3436L137.568 42.0352L134.505 51.4604L130.573 63.5591ZM146.448 65.9856L150.393 78.1251L140.066 85.6276L129.74 78.1259L133.685 65.9858L146.448 65.9856ZM136.913 87.9188L129.775 93.1048L92.4487 65.9856H106.721L136.913 87.9188ZM130.865 96.8958L141.157 89.4191C141.158 89.418 141.159 89.4163 141.161 89.4151L151.597 81.8329L154.323 90.2245L149.074 94.0386L116.998 117.342L121.408 103.766L130.865 96.8958ZM150.345 65.9856H159.169L173.425 109.867L161.879 101.475L160.727 97.932L150.345 65.9856ZM160.516 62.2776H147.794C147.792 62.2776 147.789 62.2784 147.787 62.2784H134.889L137.616 53.8867L183.752 53.8884L172.203 62.2783H160.521C160.519 62.2786 160.518 62.2776 160.516 62.2776ZM150.799 3.70717L162.1 38.4902H153.705L142.403 3.70717H150.799ZM116.686 41.3219C116.686 41.3207 116.686 41.3197 116.686 41.3186L128.908 3.70717H138.505L149.806 38.4902H141.414L135.469 20.1972C135.221 19.4334 134.51 18.9165 133.706 18.9165C132.902 18.9165 132.191 19.4334 131.943 20.1972L116.294 68.3563L109.503 63.4234L112.886 53.0134L116.686 41.3219ZM75.7975 42.6027H112.371L109.776 50.5871H73.2037L75.7975 42.6027ZM69.0332 63.4243L72 54.2941H108.572L105.977 62.2784H86.7433C85.9397 62.2784 85.2282 62.7953 84.9802 63.5591C84.7322 64.3229 85.0038 65.1593 85.6537 65.6316L126.621 95.396L119.83 100.33L119.824 100.326L110.977 93.8965L101.03 86.6715C101.03 86.6713 101.031 86.6715 101.03 86.6715L69.0332 63.4243ZM89.614 125.954L100.915 91.1698L107.707 96.1051L96.4055 130.887L89.614 125.954ZM139.321 115.572C139.32 115.573 139.319 115.574 139.318 115.575L107.324 138.82L99.5605 133.178L107.893 107.531L110.861 98.3965L114.34 100.924L117.651 103.33L111.708 121.623C111.46 122.386 111.732 123.223 112.382 123.695C113.033 124.168 113.909 124.168 114.561 123.695L155.529 93.9311L158.123 101.913L154.16 104.792L149.27 108.344C149.269 108.345 149.267 108.345 149.266 108.346L139.321 115.572ZM173.152 138.57L143.565 117.073L150.356 112.139L179.945 133.635L173.152 138.57ZM190.864 125.702L183.099 131.344L153.51 109.847L158.952 105.894L160.302 104.913L175.862 116.22C176.514 116.692 177.39 116.692 178.041 116.22C178.691 115.747 178.963 114.911 178.715 114.147L163.068 65.9858H171.46L190.864 125.702ZM181.379 84.5146L178.785 76.5304L188.748 69.2926L208.375 55.0342L210.967 63.0169L181.379 84.5146Z" fill="black"/>
<path d="M181.7 105.028L185.012 102.904C185.516 103.552 186.044 104.272 186.596 105.064C187.148 105.832 187.652 106.588 188.108 107.332C188.588 108.052 188.96 108.712 189.224 109.312L185.696 111.724C185.456 111.124 185.12 110.44 184.688 109.672C184.256 108.88 183.776 108.076 183.248 107.26C182.72 106.444 182.204 105.7 181.7 105.028ZM184.868 135.7L183.86 131.74L184.58 130.372L190.772 125.26C190.988 125.836 191.252 126.484 191.564 127.204C191.876 127.924 192.164 128.476 192.428 128.86C190.94 130.084 189.728 131.104 188.792 131.92C187.88 132.712 187.16 133.336 186.632 133.792C186.128 134.272 185.744 134.656 185.48 134.944C185.216 135.232 185.012 135.484 184.868 135.7ZM180.404 113.416H187.316V117.556H180.404V113.416ZM191.564 103.876H209.312V107.584H191.564V103.876ZM208.088 103.876H208.844L209.564 103.696L212.336 105.208C211.4 107.152 210.212 108.916 208.772 110.5C207.332 112.06 205.7 113.464 203.876 114.712C202.076 115.96 200.144 117.04 198.08 117.952C196.04 118.864 193.952 119.62 191.816 120.22C191.672 119.86 191.468 119.452 191.204 118.996C190.964 118.54 190.7 118.096 190.412 117.664C190.124 117.208 189.836 116.836 189.548 116.548C191.564 116.092 193.52 115.492 195.416 114.748C197.336 113.98 199.124 113.08 200.78 112.048C202.436 111.016 203.888 109.864 205.136 108.592C206.384 107.32 207.368 105.964 208.088 104.524V103.876ZM197.252 105.748C198.308 107.428 199.676 108.94 201.356 110.284C203.06 111.628 205.016 112.78 207.224 113.74C209.432 114.676 211.808 115.384 214.352 115.864C214.064 116.152 213.752 116.512 213.416 116.944C213.08 117.376 212.756 117.82 212.444 118.276C212.156 118.732 211.904 119.14 211.688 119.5C209.048 118.852 206.612 117.952 204.38 116.8C202.148 115.648 200.144 114.256 198.368 112.624C196.616 110.968 195.128 109.096 193.904 107.008L197.252 105.748ZM193.472 120.868H211.04V124.612H193.472V120.868ZM191.456 127.312H213.452V131.128H191.456V127.312ZM199.916 118.024H204.164V136.24H199.916V118.024ZM184.868 135.7C184.748 135.388 184.556 135.04 184.292 134.656C184.028 134.272 183.74 133.888 183.428 133.504C183.14 133.12 182.888 132.832 182.672 132.64C183.056 132.304 183.452 131.8 183.86 131.128C184.292 130.432 184.508 129.604 184.508 128.644V113.416H188.684V130.984C188.684 130.984 188.552 131.092 188.288 131.308C188.048 131.524 187.736 131.824 187.352 132.208C186.968 132.568 186.584 132.952 186.2 133.36C185.84 133.768 185.528 134.176 185.264 134.584C185 135.016 184.868 135.388 184.868 135.7Z" fill="black"/>
</svg>
